<!--?xml version="1.0" encoding="iso-8859-1"?-->
<!-- Generator: Adobe Illustrator 18.0.0, SVG Export Plug-In . SVG Version: 6.00 Build 0)  -->

<svg xmlns="http://www.w3.org/2000/svg" xmlns:xlink="http://www.w3.org/1999/xlink" viewBox="0 0 293.649 293.649">
<path d="M252.469,153.155c-2.52-5.141-7.745-8.399-13.47-8.399h-35.347V15c0-8.284-6.716-15-15-15h-83.656c-8.284,0-15,6.716-15,15
	v129.756H54.65c-5.725,0-10.95,3.259-13.47,8.399c-2.52,5.141-1.893,11.267,1.615,15.791L134.97,287.84
	c2.841,3.665,7.218,5.81,11.855,5.81s9.014-2.145,11.854-5.81l92.175-118.894C254.362,164.422,254.989,158.296,252.469,153.155z" id="path-0" transform="translate(0,0) scale(1)" stroke="#ffffff" style="position: relative; left: 119.107px; top: 55px; stroke: rgb(255, 255, 255); fill: rgb(255, 255, 255);" fill="#ffffff"></path>
<g>
</g>
<g>
</g>
<g>
</g>
<g>
</g>
<g>
</g>
<g>
</g>
<g>
</g>
<g>
</g>
<g>
</g>
<g>
</g>
<g>
</g>
<g>
</g>
<g>
</g>
<g>
</g>
<g>
</g>
</svg>
