<?xml version="1.0" encoding="UTF-8" standalone="no"?>
<svg width="216px" height="295px" viewBox="0 0 216 295" version="1.1" xmlns="http://www.w3.org/2000/svg" xmlns:xlink="http://www.w3.org/1999/xlink">
    <!-- Generator: Sketch 40.3 (33839) - http://www.bohemiancoding.com/sketch -->
    <title>path-0</title>
    <desc>Created with Sketch.</desc>
    <defs></defs>
    <g id="Page-1" stroke="none" stroke-width="1" fill="none" fill-rule="evenodd">
        <path d="M200.417401,145.535879 L165.070401,145.535879 L165.070401,15.7798787 C165.070401,7.49587865 158.354401,0.779878651 150.070401,0.779878651 L66.414401,0.779878651 C58.130401,0.779878651 51.414401,7.49587865 51.414401,15.7798787 L51.414401,145.535879 L16.068401,145.535879 C10.343401,145.535879 5.11840099,148.794879 2.59840099,153.934879 C0.0784009899,159.075879 0.70540099,165.201879 4.21340099,169.725879 L96.388401,288.619879 C99.229401,292.284879 103.606401,294.429879 108.243401,294.429879 C112.880401,294.429879 117.257401,292.284879 120.097401,288.619879 L212.272401,169.725879 C215.780401,165.201879 216.407401,159.075879 213.887401,153.934879 C211.367401,148.793879 206.142401,145.535879 200.417401,145.535879 Z" id="path-0" stroke="#FFFFFF" fill="#FFFFFF" transform="translate(108.242901, 147.604879) rotate(-180.000000) translate(-108.242901, -147.604879) "></path>
    </g>
</svg>